<svg xmlns="http://www.w3.org/2000/svg" viewBox="0 0 236.64 168.72"><defs><style>.a{fill:#fff;}.b{fill:#13274b;}.c{fill:#c9af75;}</style></defs><title>RAM or LAR</title><path class="a" d="M173.68 167.84l5.72-1.46c7-1.75 11.48-2.9 14.1-4.15l2.29-1.11 1.31-2.18a127.54 127.54 0 0 0 13.46-36l5.81-5.28.13-1.38.18-1.86c.16-1.69.24-3.41.24-5.11a63.71 63.71 0 0 0-.75-9.51c10.12-5.63 14.51-13.78 17.19-20.4a47.32 47.32 0 0 0 3.32-17.78 58.72 58.72 0 0 0-3.2-18.88c-3.45-10.08-11.29-24.29-29-34.76-11-6.52-26.61-9.29-41.66-7.4-17.47 2.19-32.51 10.44-42.35 23.23-.76 1-1.49 2.06-2.2 3.15l-.34.06c-55.79 8.69-100 45-101.87 46.55l-16 13.29 20.74 1.67c36.56 2.94 62.43 15.73 77.7 25.94 16.73 11.19 24.78 21.81 24.86 21.92l5.4 7.35 6.94-6a22.14 22.14 0 0 0 3.2-3.45l.24.21 1.57 1.31a22 22 0 0 1 3 2.76 4.87 4.87 0 0 1 .42 2 7 7 0 0 1-.73 3.57l-.25.56c-.59 1.42-1.72 3.48-1.73 3.5l-1.7 3.11 30.88 17.35"/><path class="b" d="M142.3 126.13l.36.32v-.1zm52.3-50.91l-.52.52.31-.3z"/><path class="c" d="M202.59 11.07C182.82-.61 143.8-.7 123.26 26a46.27 46.27 0 0 0-2.86 4.2l-1.95.37C63.68 39.1 20.13 74.83 18.3 76.35l-9.22 7.66 11.95 1c72.41 5.82 104.83 48.86 105.14 49.3l3.13 4.24 4-3.43a19.45 19.45 0 0 0 4.75-6.24c1 .89 2.08 1.87 3.41 3a35.85 35.85 0 0 1 5.22 4.82 8.29 8.29 0 0 1 .94 3.94 11.07 11.07 0 0 1-1.25 5.51c-.67 1.62-1.89 3.84-1.89 3.84l26.5 14.88 1.79-.5 5.76-1.48c6.62-1.64 11.13-2.81 13.43-3.91l1.33-.64.76-1.26a124.5 124.5 0 0 0 13.25-36l5.65-5.14.18-1.88q.21-2.42.21-4.77a61.41 61.41 0 0 0-1.13-11.49c10.5-5 15-12.67 17.84-19.76 7.63-18.85 1.52-49.85-27.46-66.97z"/><path class="b" d="M223.17 41.21C206.41.7 160.39 8.79 160.39 8.79h.36a69.15 69.15 0 0 1 29.67 4.63c12 5 25.4 17.29 28.64 33.59a54.79 54.79 0 0 1 1.07 10.7v.82a44.84 44.84 0 0 1-4.17 18.8 28.8 28.8 0 0 1-7 8.65 8.89 8.89 0 0 1-5 2 3.69 3.69 0 0 1-.72-.07 2.65 2.65 0 0 1-.64-.19c-1.27-.58-1.7-2.1-4.61-6.18a59.23 59.23 0 0 0-4.37-5.33c.24-.21.46-.44.68-.66l.32-.35a11.51 11.51 0 0 0 .76-.94 14 14 0 0 0 1.78-3.34l.05-.14c.15-.4.28-.82.41-1.24 2.36-8.39-.25-21.39-10.81-29.84-11.23-9-23.37-9.74-33.21-5.79-16.55 6.64-26.57 26.56-14.75 42.85 5.73 7.9 15 8.41 20.83 4 5.42-4.16 9.06-16.88-4.28-23.69 10.72-.91 23.72 11.87 17.32 28.37a24.07 24.07 0 0 1-1.64 3.38c-9.28 15.64-34.61 13.91-46.78-.64-11.86-14.17-13.87-33.17-8.18-49 .41-1.15.87-2.29 1.37-3.41-48.92 10.57-80.58 40.16-80.58 40.16 68.41 14.2 93.2 55.45 93.2 55.45a16.39 16.39 0 0 0 4.68-7.51 20.29 20.29 0 0 1-2.67-15.05 31 31 0 0 0 4.86 11.82 68 68 0 0 0 5.32 5.49l.35.21v.1c3.43 3 7.5 6.45 8.22 7.75 3.68 6.62-.16 14.13-.16 14.13l20.7 11.34c4.62-1.3 15.42-3.67 18.4-5.1a119.87 119.87 0 0 0 13-36.05l5.43-4.93c2-5.69-1.54-18.12-1.54-18.12.44-.11.89-.24 1.34-.4a19.33 19.33 0 0 0 3.23-1.43c11.73-6.49 22.51-26.8 11.9-52.42z"/><path class="a" d="M220.13 57.72a54.72 54.72 0 0 0-1.07-10.7c-3.24-16.3-16.65-28.64-28.64-33.59a69.16 69.16 0 0 0-29.66-4.66l-1.67.21c-18.62 2.64-29.94 15.94-29.94 15.94 16.85-13.17 42.15-14.73 58.9-7.87s28.89 20.79 32.09 41.5v-.19s-.01-.42-.01-.64zm-54.36 81.3c.18-.83 2.58-1 2.58-1a13.76 13.76 0 0 1-1.1 10.49c-.13-2.75.35-7.83-1.48-9.49zm-41.48-50.86c-11.86-14.17-13.87-33.17-8.18-49-3.4 5.24-11.21 20.78-1.55 42.18 11.72 26 43.81 27 54.6 10.74a32.15 32.15 0 0 0 1.91-3.3c-9.28 15.64-34.61 13.93-46.78-.62zm61.56 23.63a3.87 3.87 0 0 1 3.87-3.88h.2a16.53 16.53 0 0 0-3.21-6.79 16.21 16.21 0 0 1-.35 4.26 6.22 6.22 0 0 0 2.9 11.72 11.68 11.68 0 0 0 .47-1.45 3.87 3.87 0 0 1-3.88-3.86z"/><path class="b" d="M190.16 113.48a3.18 3.18 0 0 1-.13.3 2.09 2.09 0 0 1-2.63-1.2 2.31 2.31 0 0 0 2.85-.33l.09-.08a3.4 3.4 0 0 1-.18 1.31z"/><path class="a" d="M190.35 112.16l-.09.08a2.31 2.31 0 0 1-2.85.33 2.09 2.09 0 0 0 2.63 1.2 3.18 3.18 0 0 0 .13-.3 3.42 3.42 0 0 0 .18-1.31z"/><path class="a" d="M202.33 111.13c.48-19.71-15.94-32.71-15.94-32.71s12 15 10.64 32.65l-3.27 3.05a55.41 55.41 0 0 1-4.81 24.08c-4.81-8.69-15.41-14.45-19.78-15.48-3 1.67-9.57 5.3-13.41 9.57a15.75 15.75 0 0 1 1.76 4.24 22.59 22.59 0 0 1-.54 10.88s7.34 4.1 7.24 3.9c2-6.95-.66-10.08-2.7-13.64a93.27 93.27 0 0 1 8.73-4.68c2.17 3 3.29 7.94 1 15-.7 2.11-1.72 4.26-2.33 5.74a25.42 25.42 0 0 0 2.85 1.51 11.3 11.3 0 0 0 8.41-6.84 4.84 4.84 0 0 0 .09-2.7 7.47 7.47 0 0 1-1.47 1.61c-1-2.2-1-4 .24-5.28a2.83 2.83 0 0 1 2.15-1 2.76 2.76 0 0 1 2.61 1.69c1.84 4.53-2.43 9.28-2.43 9.28s4.09-.19 5.26-.76c2.41-4.86 9.86-20.71 12-36.71z"/></svg>